<svg xmlns="http://www.w3.org/2000/svg" viewBox="0 0 10.15 10.15"><title>disclosure</title><g id="Layer_2" data-name="Layer 2"><g id="Layer_1-2" data-name="Layer 1"><circle cx="5.08" cy="5.08" r="4.43" fill="none" stroke="#D8D8D8" stroke-miterlimit="10" stroke-width="1.3"/><path d="M5.74,4.08V6a.34.34,0,0,1-.37.38H4.76a.33.33,0,0,1-.35-.35v-4a.33.33,0,0,1,.36-.36h.62a.33.33,0,0,1,.35.36Z" fill="#D8D8D8"/><path d="M4.41,7.74V7.41a.32.32,0,0,1,.33-.33H5.4a.32.32,0,0,1,.34.33v.66a.34.34,0,0,1-.33.34H4.75a.33.33,0,0,1-.34-.35Z" fill="#D8D8D8"/></g></g></svg>