<svg xmlns="http://www.w3.org/2000/svg" width="39.543" height="13" viewBox="0 0 39.543 13"><defs><style>.a{opacity:0.75;}.b{fill:#838383;}</style></defs><g transform="translate(51.414 -72.467)"><g class="a" transform="translate(-51.414 72.467)"><g transform="translate(0 0)"><g transform="translate(0 0)"><path class="b" d="M24.653,9.6a3.257,3.257,0,1,1-6.515,0,3.257,3.257,0,1,1,6.515,0Zm-1.438,0a1.839,1.839,0,1,0-3.668,0,1.839,1.839,0,1,0,3.668,0Z" transform="translate(-7.735 -2.762)"/><path class="b" d="M36.818,9.6a3.265,3.265,0,1,1-3.272-3.257A3.217,3.217,0,0,1,36.818,9.6Zm-1.438,0a1.839,1.839,0,1,0-3.668,0,1.839,1.839,0,1,0,3.668,0Z" transform="translate(-12.858 -2.762)"/><path class="b" d="M48.7,6.522v5.84c0,2.406-1.423,3.389-3.1,3.389a3.108,3.108,0,0,1-2.891-1.922l1.247-.514a1.8,1.8,0,0,0,1.643,1.159c1.071,0,1.731-.66,1.731-1.907V12.1h-.044a2.22,2.22,0,0,1-1.717.734,3.261,3.261,0,0,1,0-6.515,2.27,2.27,0,0,1,1.717.734h.044V6.522ZM47.439,9.6a1.83,1.83,0,0,0-1.731-1.981A1.888,1.888,0,0,0,43.889,9.6a1.874,1.874,0,0,0,1.819,1.966A1.834,1.834,0,0,0,47.439,9.6Z" transform="translate(-17.991 -2.751)"/><path class="b" d="M56.087.761V10.3H54.693V.761Z" transform="translate(-23.146 -0.409)"/><path class="b" d="M62.97,10.66l1.115.734a3.229,3.229,0,0,1-2.714,1.438,3.18,3.18,0,0,1-3.228-3.257,3.1,3.1,0,0,1,3.067-3.257A3.047,3.047,0,0,1,64,8.385l.147.367-4.343,1.8a1.65,1.65,0,0,0,1.585.983A1.787,1.787,0,0,0,62.97,10.66Zm-3.4-1.174,2.905-1.2a1.257,1.257,0,0,0-1.2-.69A1.769,1.769,0,0,0,59.566,9.486Z" transform="translate(-24.601 -2.751)"/><path class="b" d="M5.258,6.139V4.759H9.91a4.666,4.666,0,0,1,.073.836A4.547,4.547,0,0,1,8.794,8.824a4.638,4.638,0,0,1-3.521,1.423A5.12,5.12,0,0,1,.152,5.2,5.13,5.13,0,0,1,5.273.152,4.793,4.793,0,0,1,8.736,1.546l-.968.968a3.5,3.5,0,0,0-2.494-.983A3.623,3.623,0,0,0,1.649,5.2,3.623,3.623,0,0,0,5.273,8.868,3.376,3.376,0,0,0,7.826,7.855a2.87,2.87,0,0,0,.748-1.717Z" transform="translate(-0.152 -0.152)"/></g></g></g></g></svg>