<svg xmlns="http://www.w3.org/2000/svg" width="65.73" height="58.324" viewBox="0 0 65.73 58.324"><defs><style>.a,.b{fill:#888;letter-spacing:-0.025em;}.a{font-size:25px;font-family:Montserrat-Bold, Montserrat;font-weight:700;}.b{font-size:14px;font-family:Montserrat-Regular, Montserrat;}.c{fill:#fed83f;}</style></defs><g transform="translate(-1290 -1083)"><text class="a" transform="translate(1303 1107)"><tspan x="0" y="0">4.8 </tspan></text><text class="b" transform="translate(1293 1137.324)"><tspan x="0" y="0">Excellent</tspan></text><g transform="translate(1290 1109.438)"><path class="c" d="M589.458,208l2,3.985,4.462.639-3.229,3.1.762,4.381-3.991-2.069-3.991,2.069.762-4.381-3.229-3.1,4.462-.639Z" transform="translate(-556.593 -207.827)"/><path class="c" d="M589.458,208l2,3.985,4.462.639-3.229,3.1.762,4.381-3.991-2.069-3.991,2.069.762-4.381-3.229-3.1,4.462-.639Z" transform="translate(-543.39 -207.827)"/><path class="c" d="M589.458,208l2,3.985,4.462.639-3.229,3.1.762,4.381-3.991-2.069-3.991,2.069.762-4.381-3.229-3.1,4.462-.639Z" transform="translate(-530.186 -207.827)"/><path class="c" d="M523.458,208l2,3.985,4.462.639-3.229,3.1.762,4.381-3.991-2.069-3.991,2.069.762-4.381-3.229-3.1,4.462-.639Z" transform="translate(-503.797 -207.827)"/><path class="c" d="M501.458,207.786l2,3.985,4.462.639-3.229,3.1.762,4.381-3.991-2.069-3.991,2.069.762-4.381-3.229-3.1,4.463-.639Z" transform="translate(-495 -207.786)"/></g></g></svg>